<?xml version="1.0" standalone="no"?>
<!DOCTYPE svg PUBLIC "-//W3C//DTD SVG 20010904//EN"
 "http://www.w3.org/TR/2001/REC-SVG-20010904/DTD/svg10.dtd">
<svg version="1.0" xmlns="http://www.w3.org/2000/svg"
 width="880.000000pt" height="833.000000pt" 
 preserveAspectRatio="xMidYMid meet">
 <symbol id="house" viewBox="0 0 880.000000 833.000000">
<metadata>
Created by potrace 1.16, written by Peter Selinger 2001-2019
</metadata>
<g transform="translate(0.000000,833.000000) scale(0.100000,-0.100000)"
fill="#000000" stroke="none">
<path d="M4325 7916 c-16 -7 -172 -125 -345 -261 -173 -137 -544 -429 -825
-650 -768 -604 -2517 -1981 -2622 -2063 -54 -43 -97 -86 -107 -106 -51 -107
22 -226 139 -226 27 0 61 6 75 13 14 7 345 265 735 572 391 307 919 724 1175
925 256 201 772 607 1147 903 376 295 685 537 688 537 2 0 361 -289 797 -641
436 -353 951 -769 1143 -925 193 -156 676 -547 1075 -870 399 -323 739 -595
755 -605 68 -42 173 -11 215 63 26 46 24 119 -3 161 -8 13 -321 271 -694 573
-373 302 -795 643 -938 759 -143 116 -460 373 -705 571 -245 198 -694 562
-999 808 -304 246 -568 454 -587 462 -41 17 -80 17 -119 0z"/>
<path d="M1120 4449 c-14 -6 -36 -20 -48 -32 -55 -51 -52 65 -52 -1830 l0
-1754 23 -33 c12 -18 35 -43 50 -54 l28 -21 1267 -3 1267 -2 45 22 c26 14 53
37 65 58 20 34 20 52 23 913 l2 877 625 0 625 0 2 -864 c3 -859 3 -865 24
-893 11 -15 36 -38 54 -51 l33 -22 1266 2 1266 3 31 22 c69 49 64 -83 64 1713
0 1476 -1 1625 -16 1656 -24 50 -68 77 -133 82 -62 4 -105 -17 -145 -71 l-21
-28 -3 -1530 -2 -1529 -1050 0 -1050 0 0 859 0 858 -23 34 c-12 18 -38 44 -56
56 l-34 23 -829 0 c-805 0 -830 -1 -867 -20 -22 -11 -50 -36 -62 -57 l-24 -38
-1 -830 c0 -456 -2 -851 -2 -877 l-2 -48 -1060 0 -1060 0 0 1643 0 1644 -23
44 c-37 71 -126 106 -197 78z"/>
</g>
 /<symbol>
</svg>
